<?xml version="1.0" encoding="UTF-8" standalone="no"?>
<!DOCTYPE svg PUBLIC "-//W3C//DTD SVG 1.1//EN" "http://www.w3.org/Graphics/SVG/1.1/DTD/svg11.dtd">
<svg width="100%" height="100%" viewBox="0 0 984 272" version="1.1" xmlns="http://www.w3.org/2000/svg" xmlns:xlink="http://www.w3.org/1999/xlink" xml:space="preserve" xmlns:serif="http://www.serif.com/" style="fill-rule:evenodd;clip-rule:evenodd;stroke-linejoin:round;stroke-miterlimit:2;">
    <g transform="matrix(1,0,0,1,-266.57874,-925.408522)">
        <g>
            <path d="M317.579,1133.092L326.362,1133.092C335.145,1133.092 341.095,1125.725 341.095,1118.075L341.095,1101.925L324.945,1101.925L324.945,1106.175C324.945,1108.442 322.962,1110.709 320.412,1110.709L317.579,1110.709L317.579,1133.092Z" style="fill:rgb(0,175,236);fill-rule:nonzero;"/>
            <path d="M266.579,1099.375L266.579,1016.642C266.579,998.509 281.595,983.775 300.295,983.775L322.679,983.775C343.929,983.775 356.112,997.942 356.112,1016.642L356.112,1039.875C356.112,1058.009 341.095,1073.309 322.679,1073.309L289.245,1073.309L289.245,1091.159C289.245,1101.642 297.179,1110.709 307.662,1110.709L311.345,1110.709L311.345,1133.092L300.295,1133.092C281.595,1133.092 266.579,1118.075 266.579,1099.375ZM289.245,1050.925L315.595,1050.925C325.795,1050.925 333.729,1041.575 333.729,1031.375L333.729,1024.575C333.729,1014.375 325.512,1006.442 314.745,1006.442L308.512,1006.442C298.029,1006.442 289.245,1014.659 289.245,1024.859L289.245,1050.925Z"/>
            <g transform="matrix(1,0,0,0.157256,258.07874,925.408522)">
                <path d="M115.033,1113.474C115.033,1230.587 127.217,1320.673 148.75,1320.673L171.133,1320.673C189.55,1320.673 204.567,1228.785 204.567,1111.672L204.567,580.159C204.567,464.848 189.55,371.158 171.133,371.158L137.7,371.158L137.7,0L115.033,0L115.033,1113.474ZM137.7,1055.818L137.7,515.297L162.633,515.297C173.4,515.297 182.183,569.349 182.183,636.013L182.183,1055.818C182.183,1122.482 173.4,1178.336 162.633,1178.336L156.4,1178.336C145.067,1178.336 137.7,1120.681 137.7,1055.818Z" style="fill-rule:nonzero;"/>
            </g>
            <path d="M479.645,1100.225L479.645,1076.992C479.645,1058.859 494.662,1043.559 513.079,1043.559L546.512,1043.559L546.512,1025.709C546.512,1015.225 538.012,1006.159 527.812,1006.159L524.412,1006.159L524.412,983.775L535.462,983.775C554.162,983.775 569.179,998.792 569.179,1017.492L569.179,1100.225C569.179,1118.359 554.162,1133.092 535.462,1133.092L513.079,1133.092C491.829,1133.092 479.645,1118.925 479.645,1100.225ZM502.029,1092.292C502.029,1102.492 510.529,1110.425 521.012,1110.425L527.529,1110.425C538.012,1110.425 546.512,1102.209 546.512,1092.009L546.512,1065.942L520.162,1065.942C510.812,1065.942 502.029,1075.292 502.029,1085.492L502.029,1092.292Z"/>
            <path d="M494.662,1014.659L510.812,1014.659L510.812,1010.409C510.812,1008.142 512.795,1006.159 515.062,1006.159L517.895,1006.159L517.895,983.775L509.395,983.775C500.612,983.775 494.662,991.142 494.662,998.792L494.662,1014.659Z" style="fill:rgb(0,175,236);fill-rule:nonzero;"/>
            <path d="M586.179,1100.225L586.179,1016.642C586.179,998.225 601.195,983.775 619.895,983.775L642.279,983.775C660.695,983.775 675.712,998.225 675.712,1016.642L675.712,1155.475C675.712,1164.825 682.512,1175.025 691.579,1175.025L698.095,1175.025L698.095,1197.409L686.762,1197.409C668.345,1197.409 653.329,1182.392 653.329,1163.692L653.329,1133.092L619.895,1133.092C601.195,1133.092 586.179,1118.642 586.179,1100.225ZM608.845,1091.442C608.845,1101.925 617.345,1110.709 628.112,1110.709L653.329,1110.709L653.329,1025.425C653.329,1014.375 645.679,1006.159 635.479,1006.159L628.112,1006.159C617.345,1006.159 608.845,1014.942 608.845,1025.425L608.845,1091.442Z"/>
            <path d="M704.045,1197.409L712.829,1197.409C721.612,1197.409 727.562,1190.042 727.562,1182.392L727.562,1166.242L711.412,1166.242L711.412,1170.492C711.412,1173.042 709.429,1175.025 706.879,1175.025L704.045,1175.025L704.045,1197.409Z" style="fill:rgb(0,175,236);fill-rule:nonzero;"/>
            <g transform="matrix(1,0,0,0.157256,258.07874,925.408522)">
                <path d="M436.05,1111.672C436.05,1228.785 451.067,1320.673 469.483,1320.673L491.867,1320.673C513.4,1320.673 525.583,1230.587 525.583,1113.474L525.583,0L502.917,0L502.917,371.158L469.483,371.158C451.067,371.158 436.05,464.848 436.05,580.159L436.05,1111.672ZM458.433,1055.818L458.433,636.013C458.433,569.349 467.217,515.297 477.983,515.297L502.917,515.297L502.917,1055.818C502.917,1120.681 495.55,1178.336 483.933,1178.336L477.7,1178.336C467.217,1178.336 458.433,1122.482 458.433,1055.818Z" style="fill-rule:nonzero;"/>
            </g>
            <path d="M851.662,1133.092L860.445,1133.092C869.229,1133.092 875.179,1125.725 875.179,1118.075L875.179,1101.925L859.029,1101.925L859.029,1106.175C859.029,1108.442 857.045,1110.709 854.495,1110.709L851.662,1110.709L851.662,1133.092Z" style="fill:rgb(0,175,236);fill-rule:nonzero;"/>
            <path d="M800.662,1099.375L800.662,1016.642C800.662,998.509 815.679,983.775 834.379,983.775L856.762,983.775C878.012,983.775 890.195,997.942 890.195,1016.642L890.195,1039.875C890.195,1058.009 875.179,1073.309 856.762,1073.309L823.329,1073.309L823.329,1091.159C823.329,1101.642 831.262,1110.709 841.745,1110.709L845.429,1110.709L845.429,1133.092L834.379,1133.092C815.679,1133.092 800.662,1118.075 800.662,1099.375ZM823.329,1050.925L849.679,1050.925C859.879,1050.925 867.812,1041.575 867.812,1031.375L867.812,1024.575C867.812,1014.375 859.595,1006.442 848.829,1006.442L842.595,1006.442C832.112,1006.442 823.329,1014.659 823.329,1024.859L823.329,1050.925Z"/>
            <g transform="matrix(1,0,0,0.157256,258.07874,925.408522)">
                <path d="M649.117,1113.474C649.117,1230.587 661.3,1320.673 682.833,1320.673L705.217,1320.673C726.467,1320.673 738.65,1230.587 738.65,1113.474L738.65,958.524C738.65,841.411 727.317,774.747 706.067,774.747L689.917,774.747C671.817,774.747 671.783,688.264 671.783,636.013C671.783,569.349 679.717,515.297 691.05,515.297L696.717,515.297C708.05,515.297 715.983,569.349 716.267,636.013L716.267,655.832L738.65,655.832L738.65,580.159C738.65,461.245 726.467,371.158 705.217,371.158L682.833,371.158C661.3,371.158 649.117,461.245 649.117,580.159L649.117,733.307C649.117,850.42 660.167,917.084 681.7,917.084L697.567,917.084C715.95,917.084 716.267,1003.568 716.267,1055.818C716.267,1122.482 708.05,1178.336 696.717,1178.336L691.05,1178.336C680,1178.336 672.067,1126.086 671.783,1061.223L671.783,1035.999L649.117,1035.999L649.117,1113.474Z" style="fill-rule:nonzero;"/>
            </g>
            <g transform="matrix(1,0,0,0.157256,258.07874,925.408522)">
                <rect x="756.5" y="371.158" width="22.383" height="949.516"/>
            </g>
            <path d="M1053.962,1100.225L1053.962,1016.642C1053.962,998.225 1068.979,983.775 1087.679,983.775L1110.062,983.775C1128.479,983.775 1143.495,998.225 1143.495,1016.642L1143.495,1163.692C1143.495,1182.392 1128.479,1197.409 1110.062,1197.409L1098.729,1197.409L1098.729,1175.025L1103.262,1175.025C1113.179,1175.025 1121.112,1165.392 1121.112,1155.475L1121.112,1133.092L1087.679,1133.092C1068.979,1133.092 1053.962,1118.642 1053.962,1100.225ZM1076.629,1091.442C1076.629,1101.925 1085.129,1110.709 1095.895,1110.709L1121.112,1110.709L1121.112,1025.425C1121.112,1015.509 1113.179,1006.159 1103.545,1006.159L1095.895,1006.159C1085.129,1006.159 1076.629,1014.942 1076.629,1025.425L1076.629,1091.442Z"/>
            <path d="M1068.412,1182.675C1068.412,1190.042 1074.362,1197.409 1083.429,1197.409L1092.495,1197.409L1092.495,1175.025L1089.662,1175.025C1087.679,1175.025 1085.695,1173.042 1085.695,1171.059L1085.695,1166.525L1068.412,1166.525L1068.412,1182.675Z" style="fill:rgb(0,175,236);fill-rule:nonzero;"/>
            <g transform="matrix(1,0,0,0.157256,258.07874,925.408522)">
                <path d="M902.417,1320.673L925.083,1320.673L925.083,636.013C925.083,572.952 934.433,513.495 943.783,513.495L951.433,513.495C961.35,513.495 969.567,569.349 969.567,636.013L969.567,1320.673L991.95,1320.673L991.95,580.159C991.95,463.046 976.933,371.158 958.517,371.158L936.133,371.158C917.433,371.158 902.417,463.046 902.417,580.159L902.417,1320.673Z" style="fill-rule:nonzero;"/>
            </g>
            <g transform="matrix(1,0,0,0.157256,258.07874,925.408522)">
                <path d="M756.5,333.321L778.883,333.321L778.883,275.666C778.883,219.812 771.517,180.174 764.15,180.174L748.283,180.174L748.283,290.08L752.533,290.08C754.517,290.08 756.5,300.89 756.5,315.304L756.5,333.321Z" style="fill:rgb(0,175,236);"/>
            </g>
        </g>
    </g>
</svg>
