<svg xmlns="http://www.w3.org/2000/svg" viewBox="0 0 208.76 57.43"><defs><style>.cls-1{fill:#00aeef;}</style></defs><g id="Logo_Artwork" data-name="Logo Artwork"><path d="M18.9,24.17a7.11,7.11,0,0,1-7.06,7.06H6.34V34.4a3.16,3.16,0,0,0,3,3.17h.12v6.28H7.12A7.1,7.1,0,0,1,0,36.73V19.26a7,7,0,0,1,7.12-6.93h4.72c4.49,0,7.06,3,7.06,6.93Zm-9,.78a3.17,3.17,0,0,0,2.75-3.17v-.3a3.19,3.19,0,0,0-3-2.81H9.45A3.05,3.05,0,0,0,6.34,21.6v.18A3.15,3.15,0,0,0,9.45,25Z"/><path d="M41.4,19.26V36.91a7,7,0,0,1-7.06,6.94H29.61c-4.54,0-7.12-3-7.12-6.88V0h6.35V12.33h5.5A7,7,0,0,1,41.4,19.26Zm-6.28,2.52A3.14,3.14,0,0,0,32,18.67a3.08,3.08,0,0,0-3.11,3.11V34.4a3.19,3.19,0,0,0,3,3.17H32a3.19,3.19,0,0,0,3.17-3.17Z"/><path d="M45,36.91V32A7.11,7.11,0,0,1,52.05,25h5.5V21.78a3.15,3.15,0,0,0-3-3.17h-.12V12.33h2.33a7.1,7.1,0,0,1,7.12,7.11V36.91a7,7,0,0,1-7.12,6.94H52.05C47.56,43.85,45,40.86,45,36.91Zm9.45-5.68H54a3.18,3.18,0,0,0-2.75,3.17v.3a3.21,3.21,0,0,0,3,2.81h.12a3.05,3.05,0,0,0,3.11-2.93V34.4A3.14,3.14,0,0,0,54.44,31.23Z"/><path d="M86.39,48a3.22,3.22,0,0,0,2.15,3l1,.18v6.28H87.17a7.08,7.08,0,0,1-7.06-7.12V43.85H74.6a7,7,0,0,1-7.12-6.94V19.26a7,7,0,0,1,7.12-6.93h4.73a7,7,0,0,1,7.06,6.93Zm-6.28-26.2A3.24,3.24,0,0,0,78.37,19l-1.43-.35a3.18,3.18,0,0,0-3.12,3.17V34.4a3.14,3.14,0,0,0,3.12,3.17,3.19,3.19,0,0,0,3.17-3.17Z"/><path d="M102.56,12.33V0h6.34V37c0,3.89-2.57,6.88-7.11,6.88H97.06A7,7,0,0,1,90,36.91V19.26a7,7,0,0,1,7.06-6.93ZM96.28,34.4a3.19,3.19,0,0,0,3.17,3.17,3.56,3.56,0,0,0,1.56-.42,3.09,3.09,0,0,0,1.55-2.75V21.78a3.08,3.08,0,0,0-3.11-3.11,3.14,3.14,0,0,0-3.17,3.11Z"/><path d="M131.4,24.17a7.11,7.11,0,0,1-7.06,7.06h-5.5V34.4a3.16,3.16,0,0,0,3,3.17H122v6.28h-2.33a7.1,7.1,0,0,1-7.12-7.12V19.26a7,7,0,0,1,7.12-6.93h4.72c4.49,0,7.06,3,7.06,6.93Zm-9,.78a3.18,3.18,0,0,0,2.75-3.17v-.3a3.2,3.2,0,0,0-3.05-2.81H122a3,3,0,0,0-3.11,2.93v.18A3.14,3.14,0,0,0,122,25Z"/><path d="M153.89,37c0,3.89-2.57,6.88-7.06,6.88h-4.72c-4.55,0-7.12-3-7.12-6.88V34.4h6.34v.24a3.14,3.14,0,0,0,3.11,2.93,3.17,3.17,0,1,0,0-6.34h-2.33c-4.55,0-7.12-3-7.12-6.88V19.26c0-4,2.57-6.93,7.12-6.93h4.72c4.49,0,7.06,3,7.06,6.93v2.52h-6.28v-.06a3.16,3.16,0,0,0-3.17-3,3.09,3.09,0,0,0-3.11,3.11A3.15,3.15,0,0,0,144.44,25h2.39c4.49,0,7.06,3,7.06,6.88Z"/><path d="M163.77,12.33V43.85h-6.29V12.33Z"/><path d="M186.26,50.31a7.08,7.08,0,0,1-7.06,7.12h-2.39V51.15l.48-.06A3.15,3.15,0,0,0,180,48V43.85h-5.51a7,7,0,0,1-7.11-6.94V19.26a7,7,0,0,1,7.11-6.93h4.73a7,7,0,0,1,7.06,6.93ZM180,21.78a3.19,3.19,0,0,0-2.63-3.11l-.54-.06a3.17,3.17,0,0,0-3.11,3.17V34.4a3.13,3.13,0,0,0,3.11,3.17A3.19,3.19,0,0,0,180,34.4Z"/><path d="M202.47,43.85V21.78a3.18,3.18,0,0,0-3.17-3.17l-.6.06a3.14,3.14,0,0,0-2.51,3.11V43.85h-6.34V19.26A7,7,0,0,1,197,12.33h4.73a7,7,0,0,1,7.06,6.93V43.85Z"/><path class="cls-1" d="M10.77,38v-.42h5v3.11a3.13,3.13,0,0,1-3.11,3.17H10.77Z"/><path class="cls-1" d="M53.13,12.33H51.27a3.14,3.14,0,0,0-3.11,3.17v3.11h5V12.33Z"/><path class="cls-1" d="M91,51.15h4.78v3.11a3.15,3.15,0,0,1-3.17,3.17H90.82V51.15Z"/><path class="cls-1" d="M123.26,38v-.42h5v3.11a3.14,3.14,0,0,1-3.11,3.17h-1.86Z"/><path class="cls-1" d="M170.53,54.32V51.15h5v6.28H173.7A3.13,3.13,0,0,1,170.53,54.32Z"/><path class="cls-1" d="M163.77,9.15V11h-6.29V6h3.18A3.13,3.13,0,0,1,163.77,9.15Z"/></g></svg>