<?xml version="1.0" encoding="UTF-8"?>
<svg xmlns="http://www.w3.org/2000/svg" version="1.1" viewBox="0 0 117.2 117.2">
  <defs>
    <style>
      .cls-1 {
        fill: #00aeef;
      }

      .cls-2 {
        fill: #fff;
      }
    </style>
  </defs>
  <!-- Generator: Adobe Illustrator 28.6.0, SVG Export Plug-In . SVG Version: 1.2.0 Build 709)  -->
  <g>
    <g id="Layer_1">
      <g>
        <circle class="cls-2" cx="58.6" cy="58.6" r="51.6"/>
        <g id="Logo_Artwork">
          <path class="cls-1" d="M53.4,43.1c2.9,2.9,2.9,7.5,0,10.4s-7.5,2.9-10.4,0c-2.9-2.9-2.9-7.5,0-10.4,0,0,0,0,0,0,2.9-2.9,7.5-2.9,10.4,0ZM100.1,100.1c-22.9,22.9-60,22.9-82.9,0-22.9-22.9-22.9-60,0-82.9,22.9-22.9,60-22.9,82.9,0,22.9,22.9,22.9,60,0,82.9h0ZM84.6,84.5l-10.4-10.4c-2.9,2.9-7.5,2.9-10.4,0h0l-5.2-5.2,9.1-9.1c6.4-6.4,6.4-16.9,0-23.3l-7.8-7.8c-6.4-6.4-16.9-6.4-23.3,0l-7.8,7.8c-6.4,6.4-6.5,16.9,0,23.3,0,0,0,0,0,0l28.5,28.5c6.4,6.4,16.9,6.4,23.3,0l3.9-3.9ZM89.7,69l-5.2-5.2-8.2,8.2,10.4,10.4,3-3c2.9-2.9,2.9-7.5,0-10.4ZM100.1,100.1c-22.9,22.9-60,22.9-82.9,0-22.9-22.9-22.9-60,0-82.9,22.9-22.9,60-22.9,82.9,0,22.9,22.9,22.9,60,0,82.9h0ZM84.6,84.5l-10.4-10.4c-2.9,2.9-7.5,2.9-10.4,0h0l-5.2-5.2,9.1-9.1c6.4-6.4,6.4-16.9,0-23.3l-7.8-7.8c-6.4-6.4-16.9-6.4-23.3,0l-7.8,7.8c-6.4,6.4-6.5,16.9,0,23.3,0,0,0,0,0,0l28.5,28.5c6.4,6.4,16.9,6.4,23.3,0l3.9-3.9ZM89.7,69l-5.2-5.2-8.2,8.2,10.4,10.4,3-3c2.9-2.9,2.9-7.5,0-10.4Z"/>
        </g>
      </g>
    </g>
  </g>
</svg>