<?xml version="1.0" encoding="UTF-8"?><svg id="Layer_1" xmlns="http://www.w3.org/2000/svg" viewBox="0 0 566.92913 155.96817"><defs><style>.cls-1,.cls-2{stroke-width:0px;}.cls-2{fill:#00afec;}</style></defs><g id="Ebaqdesign_Logotype-logotype"><path class="cls-1" d="m51.34123,65.63938c0,10.39317-8.61164,19.17047-19.17319,19.17047h-14.94748v8.61164c0,4.54616,3.57664,8.44597,8.12552,8.61163h.32317v17.05219h-6.33584c-10.72178,0-19.33342-8.60892-19.33342-19.32798v-47.44414c0-10.3986,8.61164-18.84186,19.33342-18.84186h12.83463c12.18556,0,19.17319,8.11465,19.17319,18.84186v13.32618Zm-24.53407,2.11013c4.2257-.48883,7.47102-4.22027,7.47102-8.61163v-.81472c-.4834-4.21756-4.06004-7.47103-8.28303-7.62854h-.32589c-4.54616,0-8.28575,3.41098-8.44869,7.95443v.48884c0,4.71183,3.73687,8.61163,8.44869,8.61163h1.1379Z"/><path class="cls-1" d="m112.43091,52.31347v47.93025c0,10.56155-8.61163,18.84186-19.17319,18.84186h-12.83462c-12.34851,0-19.33341-8.12009-19.33341-18.68164V0h17.22328v33.4716h14.94476c10.56156,0,19.17319,8.44327,19.17319,18.84188m-17.06033,6.82467c0-4.71182-3.8971-8.44326-8.60893-8.44326s-8.44869,3.73144-8.44869,8.44326v34.28361c0,4.38322,3.41098,8.28576,8.1228,8.61164h.32589c4.71183,0,8.60893-3.8971,8.60893-8.61164v-34.28361Z"/><path class="cls-1" d="m122.18126,100.24427v-13.32618c0-10.3986,8.60892-19.16775,19.17047-19.16775h14.94749v-8.61164c0-4.54888-3.57664-8.44598-8.12281-8.61163h-.3286v-17.0549h6.33856c10.72449,0,19.33613,8.61163,19.33613,19.33069v47.44142c0,10.40131-8.61164,18.84186-19.33613,18.84186h-12.83463c-12.18556,0-19.17047-8.12009-19.17047-18.84186m25.66654-15.43361h-1.13519c-4.22299.48884-7.47645,4.22843-7.47645,8.61164v.80929c.49155,4.22028,4.06547,7.47645,8.29119,7.63397h.32046c4.55159,0,8.29117-3.4137,8.45141-7.95443v-.48884c0-4.71183-3.73688-8.61164-8.45141-8.61164"/><path class="cls-1" d="m234.61054,130.30434c0,3.73144,2.43601,6.82196,5.84972,8.12009l2.76191.48884v17.0549h-6.49878c-10.56426,0-19.17318-8.60349-19.17318-19.3307v-17.55188h-14.94478c-10.7272,0-19.33612-8.28032-19.33612-18.84186v-47.93025c0-10.55883,8.60892-18.84188,19.33612-18.84188h12.83464c10.55883,0,19.17047,8.28304,19.17047,18.84188v77.99087Zm-17.06033-71.1662c0-3.25075-1.94991-6.17561-4.7064-7.6394l-3.90254-.97223c-4.71183.16838-8.45141,3.89982-8.45141,8.61163v34.28361c0,4.71454,3.73958,8.61164,8.45141,8.61164,4.70911,0,8.60894-3.8971,8.60894-8.61164v-34.28361Z"/><path class="cls-1" d="m278.53454,33.47187V.00027h17.22598v100.40395c0,10.56155-6.98762,18.68163-19.3334,18.68163h-12.83462c-10.55883,0-19.17049-8.28032-19.17049-18.84186v-47.93025c0-10.39861,8.61165-18.84188,19.17049-18.84188h14.94205Zm-17.0549,59.95016c0,4.71454,3.89981,8.61164,8.61163,8.61164,1.45834,0,2.92485-.48884,4.2257-1.13518,2.59897-1.46651,4.21756-4.23386,4.21756-7.47646v-34.2836c0-4.71183-3.73144-8.44327-8.44327-8.44327s-8.61163,3.73144-8.61163,8.44327v34.2836Z"/><path class="cls-1" d="m356.85103,65.63938c0,10.39317-8.61165,19.17047-19.17047,19.17047h-14.9475v8.61164c0,4.54616,3.57393,8.44597,8.12282,8.61163h.32588v17.05219h-6.33584c-10.72449,0-19.33612-8.60892-19.33612-19.32798v-47.44414c0-10.3986,8.61163-18.84186,19.33612-18.84186h12.83464c12.18285,0,19.17047,8.11465,19.17047,18.84186v13.32618Zm-24.53135,2.11013c4.22297-.48883,7.47102-4.22027,7.47102-8.61163v-.81472c-.48612-4.21756-4.06005-7.47103-8.28304-7.62854h-.3259c-4.54887,0-8.28574,3.41098-8.44869,7.95443v.48884c0,4.71183,3.73415,8.61163,8.44869,8.61163h1.13792Z"/><path class="cls-1" d="m417.94017,100.40503c0,10.56155-6.98492,18.68164-19.17322,18.68164h-12.83462c-12.34577,0-19.33342-8.12009-19.33342-18.68164v-6.98219h17.22331v.64636c.32588,4.38321,3.90252,7.96529,8.44867,7.96529,4.71183,0,8.61165-3.8971,8.61165-8.61164s-3.89983-8.61163-8.61165-8.61163h-6.33856c-12.34577,0-19.33342-8.12281-19.33342-18.68435v-13.81231c0-10.72721,6.98766-18.84185,19.33342-18.84185h12.83462c12.1883,0,19.17322,8.11464,19.17322,18.84185v6.82468h-17.05763v-.16022c-.16294-4.55432-3.89983-8.28576-8.61165-8.28576-4.71452,0-8.44867,3.73144-8.44867,8.44598,0,4.71183,3.73415,8.61164,8.44867,8.61164h6.49607c12.1883,0,19.17322,8.12008,19.17322,18.68164v13.97252Z"/><rect class="cls-1" x="427.68862" y="33.47133" width="17.06033" height="85.61398"/><path class="cls-1" d="m505.83809,136.63747c0,10.7272-8.60892,19.3307-19.17049,19.3307h-6.5015v-17.0549l1.30085-.16023c4.2257-.65178,7.3108-4.22299,7.3108-8.44869v-11.21875h-14.94752c-10.72177,0-19.33338-8.28032-19.33338-18.84186v-47.93025c0-10.55883,8.61161-18.84188,19.33338-18.84188h12.83736c10.56157,0,19.17049,8.28304,19.17049,18.84188v84.32399Zm-17.06033-77.49933c0-4.21755-3.08509-7.6394-7.14786-8.44326l-1.46379-.16838c-4.70913.16838-8.44598,3.89982-8.44598,8.61163v34.28361c0,4.71454,3.73685,8.61164,8.44598,8.61164,4.71183,0,8.61165-3.8971,8.61165-8.61164v-34.28361Z"/><path class="cls-1" d="m549.86881,119.08639v-59.94743c0-4.71454-3.90256-8.61164-8.60896-8.61164l-1.62673.16566c-3.89979.80658-6.82194,4.22842-6.82194,8.44598v59.94743h-17.226V52.31428c0-10.56155,8.61435-18.84185,19.33612-18.84185h12.83462c10.56157,0,19.17322,8.28031,19.17322,18.84185v66.77211h-17.06033Z"/><path class="cls-2" d="m29.2459,103.1683v-1.13518h13.48369v8.44327c0,4.39408-3.41098,8.60892-8.4487,8.60892h-5.035v-15.917Z"/><path class="cls-2" d="m144.2766,33.47133h-5.04044c-5.03228,0-8.44598,4.22573-8.44598,8.61164v8.44327h13.48642v-17.05491Z"/><path class="cls-2" d="m247.12227,138.91326h12.99485v8.45141c0,4.3805-3.41097,8.60349-8.61163,8.60349h-4.87478v-17.0549h.49157Z"/><path class="cls-2" d="m334.75434,103.1683v-1.13518h13.4864v8.44327c0,4.39408-3.41369,8.60892-8.45141,8.60892h-5.03499v-15.917Z"/><path class="cls-2" d="m463.10797,147.52463v-8.61164h13.48368v17.0549h-4.87207c-5.20064,0-8.61161-4.22299-8.61161-8.44327"/><path class="cls-2" d="m444.74895,24.85996v5.03501h-17.06037v-13.4837h8.61165c4.2257,0,8.44872,3.41099,8.44872,8.44869"/></g></svg>