<svg xmlns="http://www.w3.org/2000/svg" id="Layer_1" version="1.1" viewBox="0 0 1616.6 456.5"><defs><style>.st0{fill:#00afec}</style></defs><path d="M5 293.4V153.1c0-16.5 5.1-29.8 15.5-39.9C30.8 103.1 44.3 98 61.2 98h38.5c16.8 0 30.3 5.1 40.7 15.2 10.3 10.1 15.5 23.5 15.5 39.9v39.5c0 16.8-5.2 30.2-15.5 40.2-10.3 10-23.9 15-40.7 15h-69V292c0 9.5 2.9 17 8.6 22.6 5.7 5.5 13.3 8.3 22.8 8.3h18.1v25.7h-19c-16.8 0-30.4-5.1-40.7-15.2C10.2 323.3 5 309.9 5 293.5Zm25.7-71.3h68c9.2 0 16.7-2.9 22.6-8.6 5.9-5.7 8.8-13.2 8.8-22.3v-36.6c0-9.2-2.9-16.6-8.8-22.3-5.9-5.7-13.4-8.6-22.6-8.6H62.1c-9.5 0-17.1 2.9-22.8 8.6-5.7 5.7-8.6 13.2-8.6 22.3v67.5Zm146.9 71.3V0h25.7v97.9h68.5c16.8 0 30.3 5.1 40.7 15.2 10.3 10.1 15.5 23.5 15.5 39.9v140.3c0 16.8-5.1 30.2-15.2 40.2-10.1 10-23.6 15-40.4 15h-38.5c-16.8 0-30.4-5.1-40.7-15.2-10.3-10.1-15.5-23.5-15.5-39.9Zm25.7-1.5c0 9.2 2.9 16.6 8.8 22.3 5.9 5.7 13.4 8.6 22.6 8.6h36.1c9.5 0 17.1-2.9 22.8-8.6 5.7-5.7 8.6-13.1 8.6-22.3V154.5c0-9.2-2.9-16.6-8.6-22.3s-13.3-8.6-22.8-8.6h-67.5v168.3Zm146.2 1.5v-39.9c0-16.5 5.1-29.8 15.5-39.9 10.3-10.1 23.8-15.2 40.7-15.2h68.9v-43.7c0-9.2-2.9-16.6-8.8-22.3-5.9-5.7-13.4-8.6-22.6-8.6h-18.5V98.1h19.5c16.8 0 30.4 5.1 40.9 15.2s15.7 23.5 15.7 39.9v140.3c0 16.5-5.2 29.8-15.7 39.9-10.5 10.1-24.1 15.2-40.9 15.2h-38.5c-16.8 0-30.4-5.1-40.7-15.2-10.3-10.1-15.5-23.5-15.5-39.9Zm25.7-1.5c0 9.5 2.9 17 8.6 22.6 5.7 5.5 13.3 8.3 22.8 8.3h36.6c9.2 0 16.7-2.8 22.6-8.3 5.9-5.5 8.8-13.1 8.8-22.6v-68h-68c-9.5 0-17.1 2.9-22.8 8.6-5.7 5.7-8.6 13.2-8.6 22.3v37.1Zm152.1 1.5V153.1c0-16.8 5.1-30.2 15.5-40.2 10.3-10 23.8-15 40.7-15H622c16.8 0 30.3 5 40.7 15 10.3 10 15.5 23.4 15.5 40.2v246.8c0 9.2 2.9 16.6 8.6 22.3 5.7 5.7 13.3 8.6 22.8 8.6h18.1v25.7h-19c-16.8 0-30.4-5.1-40.7-15.2-10.3-10.1-15.5-23.5-15.5-39.9v-52.8h-68.9c-16.8 0-30.4-5.1-40.7-15.2-10.3-10.1-15.5-23.5-15.5-39.9Zm25.7-1.5c0 9.2 2.9 16.6 8.6 22.3 5.7 5.7 13.3 8.6 22.8 8.6h68V154.5c0-9.2-2.9-16.6-8.6-22.3-5.7-5.7-13.3-8.6-22.8-8.6h-36.6c-9.5 0-17.1 2.9-22.8 8.6-5.7 5.7-8.6 13.2-8.6 22.3v137.4Z"/><path d="M737.9 456.5v-25.7h12.4c5.7 0 8.6-2.9 8.6-8.6v-17.1h25.7v22.8c0 8.6-2.6 15.5-7.8 20.7-5.2 5.2-12.1 7.8-20.7 7.8H738ZM368 147.4v-20.9c0-8.6 2.6-15.5 7.8-20.7 5.2-5.2 12.1-7.8 20.7-7.8h18.1v25.7h-12.4c-5.7 0-8.6 2.9-8.6 8.6v15.2h-25.7ZM90.6 348.5v-25.7H103c5.7 0 8.6-2.9 8.6-8.6v-15.7h25.7v21.4c0 8.6-2.6 15.5-7.8 20.7-5.2 5.2-12.1 7.8-20.7 7.8H90.7Z" class="st0"/><path d="M704.4 293.4V153.1c0-16.5 5.1-29.8 15.5-39.9 10.3-10.1 23.8-15.2 40.7-15.2h68.5V0h25.7v293.4c0 16.5-5.2 29.8-15.5 39.9-10.3 10.1-23.9 15.2-40.7 15.2h-38c-16.8 0-30.4-5.1-40.7-15.2-10.3-10.1-15.5-23.5-15.5-39.9Zm25.7-1.5c0 9.2 2.9 16.6 8.6 22.3 5.7 5.7 13.3 8.6 22.8 8.6h36.1c9.5 0 17.1-2.9 22.8-8.6 5.7-5.7 8.6-13.1 8.6-22.3V123.6h-67.5c-9.5 0-17.1 3.3-22.8 9.7-5.7 6.5-8.6 15.1-8.6 25.9v132.7Zm151.2 1.5V153.1c0-16.5 5.1-29.8 15.5-39.9 10.3-10.1 23.8-15.2 40.7-15.2H976c16.8 0 30.3 5.1 40.7 15.2 10.3 10.1 15.5 23.5 15.5 39.9v39.5c0 16.8-5.2 30.2-15.5 40.2-10.3 10-23.9 15-40.7 15h-68.9V292c0 9.5 2.9 17 8.6 22.6 5.7 5.5 13.3 8.3 22.8 8.3h18.1v25.7h-19c-16.8 0-30.4-5.1-40.7-15.2-10.3-10.1-15.5-23.5-15.5-39.9Zm25.7-71.3h68c9.2 0 16.7-2.9 22.6-8.6 5.9-5.7 8.8-13.2 8.8-22.3v-36.6c0-9.2-2.9-16.6-8.8-22.3-5.9-5.7-13.4-8.6-22.6-8.6h-36.6c-9.5 0-17.1 2.9-22.8 8.6-5.7 5.7-8.6 13.2-8.6 22.3v67.5Zm146.9 71.3v-20h25.7v18.5c0 9.2 2.9 16.6 8.6 22.3 5.7 5.7 13.3 8.6 22.8 8.6h36.6c9.5 0 17.1-2.9 22.8-8.6 5.7-5.7 8.6-13.1 8.6-22.3v-25.2c0-9.2-2.9-16.6-8.6-22.3-5.7-5.7-13.3-8.6-22.8-8.6H1110c-16.8 0-30.4-5.1-40.7-15.2-10.3-10.1-15.5-23.5-15.5-39.9v-27.6c0-16.8 5.1-30.2 15.5-40.2 10.3-10 23.8-15 40.7-15h38.5c16.8 0 30.3 5 40.7 15 10.3 10 15.5 23.4 15.5 40.2v20H1179v-18.5c0-9.2-2.9-16.6-8.8-22.3-5.9-5.7-13.4-8.6-22.6-8.6H1111c-9.5 0-17.1 2.9-22.8 8.6-5.7 5.7-8.6 13.2-8.6 22.3v24.7c0 9.2 2.9 16.6 8.6 22.3s13.3 8.6 22.8 8.6h37.6c16.8 0 30.3 5.1 40.7 15.2 10.3 10.1 15.5 23.5 15.5 39.9v28.1c0 16.5-5.2 29.8-15.5 39.9-10.3 10.1-23.9 15.2-40.7 15.2h-38.5c-16.8 0-30.4-5.1-40.7-15.2-10.3-10.1-15.5-23.5-15.5-39.9Zm177.3 55.1V97.9h25.7v250.6h-25.7Zm52.3-55.1V153.1c0-16.8 5.1-30.2 15.5-40.2 10.3-10 23.8-15 40.7-15h38.5c16.8 0 30.4 5 40.7 15 10.3 10 15.5 23.4 15.5 40.2v248.2c0 16.5-5.2 29.8-15.5 39.9-10.3 10.1-23.9 15.2-40.7 15.2h-19.5v-25.7h18.5c9.5 0 17.1-2.9 22.8-8.6 5.7-5.7 8.6-13.2 8.6-22.3v-51.4h-68.9c-16.8 0-30.4-5.1-40.7-15.2-10.3-10.1-15.5-23.5-15.5-39.9Zm25.7-1.9c0 9.5 2.9 17.1 8.6 22.8 5.7 5.7 13.3 8.6 22.8 8.6h68V154.6c0-9.2-2.9-16.6-8.6-22.3-5.7-5.7-13.3-8.6-22.8-8.6h-36.6c-9.5 0-17.1 2.9-22.8 8.6-5.7 5.7-8.6 13.2-8.6 22.3v136.9Zm149.2 57V153.1c0-16.5 5.1-29.8 15.5-39.9 10.3-10.1 23.8-15.2 40.7-15.2h39c16.5 0 29.9 5.1 40.2 15.2 10.3 10.1 15.5 23.5 15.5 39.9v195.4h-25.7v-194c0-9.2-2.9-16.6-8.8-22.3-5.9-5.7-13.6-8.6-23.1-8.6h-36.1c-9.5 0-17.1 2.9-22.8 8.6-5.7 5.7-8.6 13.2-8.6 22.3v194h-25.7Z"/><path d="M1302.1 427.9V407h25.7v15.2c0 5.7 2.9 8.6 8.6 8.6h11.9v25.7h-17.6c-8.6 0-15.5-2.6-20.7-7.8-5.2-5.2-7.8-12.1-7.8-20.7Zm-70.9-341.4v-7.1c0-5.7-2.9-8.6-8.6-8.6h-9.5V45.1h20c7.3 0 13.1 2.1 17.4 6.4s6.4 10.1 6.4 17.4v17.6h-25.7Zm-264.3 262v-25.7h12.4c5.7 0 8.6-2.9 8.6-8.6v-15.7h25.7v21.4c0 8.6-2.6 15.5-7.8 20.7-5.2 5.2-12.1 7.8-20.7 7.8H967Z" class="st0"/></svg>