<?xml version="1.0" encoding="UTF-8"?>
<svg width="183px" height="40px" viewBox="0 0 183 40" version="1.1" xmlns="http://www.w3.org/2000/svg" xmlns:xlink="http://www.w3.org/1999/xlink">
    <title>TuneTx_Logo</title>
    <g id="Desktop" stroke="none" stroke-width="1" fill="none" fill-rule="evenodd">
        <g id="D_Home" transform="translate(-50.000000, -35.000000)">
            <g id="TuneTx_Logo" transform="translate(49.999904, 34.999905)">
                <g id="Symbol" fill="#17CFB7">
                    <path d="M20.1157895,2.5433104 C10.4344771,2.5433104 2.55801453,10.3744971 2.55801453,20.0001587 C2.55801453,29.6258204 10.4344771,37.4566896 20.1157895,37.4566896 C29.7971018,37.4566896 37.6735644,29.6258204 37.6735644,20.0001587 C37.6735644,10.3744971 29.7971018,2.5433104 20.1157895,2.5433104 M20.1157895,40 C9.02392943,40 0,31.0279424 0,20.0001587 C0,8.97205755 9.02392943,0 20.1157895,0 C31.2076495,0 40.2315789,8.97205755 40.2315789,20.0001587 C40.2315789,31.0279424 31.2076495,40 20.1157895,40" id="Container"></path>
                    <path d="M12.4903726,14.4205714 C13.2828709,13.9666032 14.0670674,13.5256508 14.9703621,13.3329524 C17.9877305,12.6891429 20.9814709,12.5154921 23.9349796,13.6723175 C24.8941516,14.047873 25.8328884,13.6240635 26.1853937,12.7364444 C26.5372604,11.8513651 26.1154674,10.8840635 25.2233481,10.4888254 C24.6102954,10.2173968 24.0671691,10.4770794 23.4962639,10.6475556 C19.7620709,11.7631111 16.111534,11.6872381 12.6034042,9.83104762 C12.1394639,9.58565079 11.6716919,9.41834921 11.1764604,9.45326984 C10.6815481,9.44342857 10.2437902,9.51104762 9.83381123,9.75073016 C8.59589193,10.4742222 8.11917965,12.1427937 8.81237614,13.3694603 C9.55155158,14.6777143 11.1822077,15.1704127 12.4903726,14.4205714" id="Fill-1"></path>
                    <path d="M32.6488204,15.0112698 C32.2388414,14.7715873 31.8010835,14.7039683 31.3058519,14.7138095 C30.8109396,14.6788889 30.3431677,14.8461905 29.8792274,15.0915873 C26.3707782,16.9477778 22.7202414,17.0236508 18.9863677,15.9080952 C18.4154625,15.737619 17.8720168,15.4779365 17.2589642,15.7493651 C16.3671642,16.1442857 15.9450519,17.1119048 16.2969186,17.9969841 C16.6497432,18.8846032 17.58848,19.3084127 18.5476519,18.9328571 C21.5011607,17.7760317 24.4949011,17.9496825 27.5122695,18.5934921 C28.4155642,18.7861905 29.1997607,19.2268254 29.9922589,19.6811111 C31.3001046,20.4309524 32.93108,19.938254 33.6702554,18.63 C34.3634519,17.4033333 33.8867396,15.7347619 32.6488204,15.0112698" id="Fill-3"></path>
                    <path d="M23.2521284,24.1933651 C24.2113004,24.5689206 25.1500372,24.1451111 25.5028618,23.2574921 C25.8547284,22.3724127 25.4326161,21.4047937 24.5404968,21.009873 C23.9277635,20.7384444 23.3843179,20.998127 22.8134126,21.1686032 C19.0795389,22.2841587 15.4290021,22.2082857 11.920553,20.3520952 C11.4566126,20.1066984 10.9888407,19.9393968 10.4939284,19.9743175 C9.99869684,19.9644762 9.56093895,20.0320952 9.15096,20.2717778 C7.9130407,20.9952698 7.43632842,22.6638413 8.12952491,23.8905079 C8.86870035,25.1987619 10.4996758,25.6914603 11.8075214,24.941619 C12.6000196,24.4873333 13.3842161,24.0466984 14.2875109,23.854 C17.3048793,23.2101905 20.2986196,23.0365397 23.2521284,24.1933651" id="Fill-5"></path>
                    <path d="M31.9660968,25.5323175 C31.5561179,25.2926349 31.11836,25.2250159 30.6231284,25.2348571 C30.1282161,25.1999365 29.6604442,25.3672381 29.1965039,25.6126349 C25.6880547,27.4688254 22.0375179,27.5446984 18.3036442,26.4291429 C17.7327389,26.2586667 17.1892933,25.9989841 16.57656,26.2704127 C15.6844407,26.6653333 15.2623284,27.6329524 15.6141951,28.5180317 C15.9670196,29.4056508 16.9057565,29.8294603 17.8649284,29.4539048 C20.8184372,28.2970794 23.8121775,28.4707302 26.829546,29.1145397 C27.7328407,29.3072381 28.5170372,29.747873 29.3095354,30.2021587 C30.6173811,30.952 32.2483565,30.4593016 32.9875319,29.1510476 C33.6807284,27.924381 33.2040161,26.2558095 31.9660968,25.5323175" id="Fill-7"></path>
                </g>
                <g id="Copy_Therapeutics" transform="translate(43.771926, 28.309778)" fill="#FFFFFF">
                    <polygon id="Fill-12" points="0 1.62984127 2.24019649 1.62984127 2.24019649 8.02825397 3.41010526 8.02825397 3.41010526 1.62984127 5.65030175 1.62984127 5.65030175 0.466349206 0 0.466349206"></polygon>
                    <polygon id="Fill-14" points="17.0246632 3.51631746 13.3773193 3.51631746 13.3773193 0.46647619 12.2070912 0.46647619 12.2070912 8.02838095 13.3773193 8.02838095 13.3773193 4.67980952 17.0246632 4.67980952 17.0246632 8.02838095 18.1945719 8.02838095 18.1945719 0.46647619 17.0246632 0.46647619"></polygon>
                    <polygon id="Fill-16" points="24.8570811 8.02828571 29.9591477 8.02828571 29.9591477 6.87019048 26.0273091 6.87019048 26.0273091 4.67431746 29.559067 4.67431746 29.559067 3.5108254 26.0273091 3.5108254 26.0273091 1.62987302 29.9591477 1.62987302 29.9591477 0.466380952 24.8570811 0.466380952"></polygon>
                    <path d="M37.7916933,4.57492063 L37.7916933,1.61904762 L40.0159249,1.61904762 C40.5252056,1.61904762 40.9310337,1.75206349 41.2334091,2.01746032 C41.5038547,2.25142857 41.6392372,2.56603175 41.6392372,2.96063492 C41.6392372,3.4047619 41.4808653,3.78507937 41.1650793,4.1031746 C40.8448232,4.41777778 40.4639004,4.57492063 40.021353,4.57492063 L37.7916933,4.57492063 Z M41.9927004,4.92603175 C42.5335916,4.38444444 42.8040372,3.72920635 42.8040372,2.96063492 L42.8094653,2.96063492 C42.8094653,2.22 42.5390196,1.61428571 41.9974898,1.14222222 C41.47416,0.684761905 40.8135319,0.455873016 40.0159249,0.455873016 L40.0159249,0.460952381 L36.6214653,0.460952381 L36.6214653,8.02825397 L37.7916933,8.02825397 L37.7916933,5.73301587 L39.5890232,5.73301587 L41.4760758,8.02285714 L42.9834828,8.02285714 L40.9648793,5.57047619 C41.3547425,5.43079365 41.6973495,5.21587302 41.9927004,4.92603175 L41.9927004,4.92603175 Z" id="Fill-18"></path>
                    <path d="M53.461574,5.17238095 L51.2264863,5.17238095 L52.0384618,3.4168254 C52.1403179,3.1968254 52.242174,2.92412698 52.3440302,2.59936508 C52.4458863,2.92412698 52.5477425,3.1968254 52.6495986,3.4168254 L53.461574,5.17238095 Z M48.6756126,8.02825397 L49.9036337,8.02825397 L50.7523284,6.19936508 L53.9357319,6.19936508 L54.7793179,8.02825397 L56.0124477,8.02825397 L52.3440302,0 L48.6756126,8.02825397 Z" id="Fill-20"></path>
                    <path d="M66.0849982,4.39660317 C65.7337702,4.74612698 65.3084649,4.9204127 64.8097211,4.9204127 L63.2652754,4.9204127 L63.2652754,1.62453968 L64.8097211,1.62453968 L64.8097211,1.62993651 C65.371686,1.62993651 65.8215772,1.77660317 66.1587561,2.06993651 C66.4608123,2.33533333 66.6118404,2.68803175 66.6118404,3.12866667 L66.6172684,3.12866667 C66.6137561,3.62104762 66.4365456,4.04390476 66.0849982,4.39660317 M66.9231561,1.19469841 C66.3643842,0.709301587 65.6600123,0.466444444 64.8097211,0.466444444 L62.0950474,0.466444444 L62.0950474,8.02834921 L63.2652754,8.02834921 L63.2652754,6.0788254 L64.8097211,6.0788254 C65.631914,6.0788254 66.3327737,5.79215873 66.9126193,5.21946032 C67.4924649,4.64295238 67.7820684,3.94612698 67.7820684,3.12866667 C67.7820684,2.3388254 67.4959772,1.69438095 66.9231561,1.19469841" id="Fill-22"></path>
                    <polygon id="Fill-24" points="74.2650361 8.02828571 79.3671028 8.02828571 79.3671028 6.87019048 75.4352642 6.87019048 75.4352642 4.67431746 78.9667028 4.67431746 78.9667028 3.5108254 75.4352642 3.5108254 75.4352642 1.62987302 79.3671028 1.62987302 79.3671028 0.466380952 74.2650361 0.466380952"></polygon>
                    <path d="M92.8130712,0.456031746 L91.6482712,0.456031746 L91.6482712,4.76365079 C91.6482712,5.37507937 91.4305098,5.89539683 90.9946677,6.3252381 C90.5626572,6.75857143 90.0390081,6.97507937 89.4240396,6.97507937 C88.8090712,6.97507937 88.2854221,6.75857143 87.8534116,6.3252381 C87.4175695,5.89539683 87.1998081,5.37507937 87.1998081,4.76365079 L87.1998081,0.456031746 L86.02958,0.456031746 L86.02958,4.76365079 C86.02958,5.69285714 86.3619695,6.48746032 87.0257905,7.14809524 C87.6864186,7.80809524 88.4859414,8.13857143 89.4240396,8.13857143 C90.3621379,8.13857143 91.1613414,7.80809524 91.8222888,7.14809524 C92.4861098,6.48746032 92.8184993,5.69285714 92.8184993,4.76365079 L92.8130712,4.76365079 L92.8130712,0.456031746 Z" id="Fill-26"></path>
                    <polygon id="Fill-28" points="99.375193 1.62984127 101.61507 1.62984127 101.61507 8.02825397 102.785298 8.02825397 102.785298 1.62984127 105.025495 1.62984127 105.025495 0.466349206 99.375193 0.466349206"></polygon>
                    <polygon id="Fill-30" points="111.740465 8.0284127 112.910693 8.0284127 112.910693 0.466507937 111.740465 0.466507937"></polygon>
                    <path d="M123.594604,1.44615873 C123.952856,1.44615873 124.295463,1.50933333 124.622425,1.63473016 C124.959604,1.76774603 125.256232,1.95473016 125.513267,2.19568254 L126.308958,1.34679365 C125.936337,1.00107937 125.518056,0.736952381 125.054435,0.55568254 C124.587302,0.374095238 124.100372,0.282984127 123.594604,0.282984127 C122.498133,0.282984127 121.563547,0.667111111 120.790207,1.43568254 C120.013674,2.20806349 119.625407,3.13885714 119.625407,4.22901587 C119.625407,5.31885714 120.013674,6.24838095 120.790207,7.01663492 C121.563547,7.78901587 122.498133,8.17473016 123.594604,8.17473016 C124.100372,8.17473016 124.587302,8.08425397 125.054435,7.90234921 C125.518056,7.7207619 125.936337,7.45536508 126.308958,7.10584127 L125.513267,6.26234921 C125.256232,6.50361905 124.959604,6.68869841 124.622425,6.8175873 C124.295463,6.94711111 123.952856,7.01187302 123.594604,7.01187302 C122.821582,7.01187302 122.162551,6.7391746 121.617828,6.19409524 C121.069912,5.6528254 120.795635,4.9975873 120.795635,4.22901587 C120.795635,3.46044444 121.069912,2.80361905 121.617828,2.25853968 C122.162551,1.71726984 122.821582,1.44615873 123.594604,1.44615873" id="Fill-32"></path>
                    <path d="M134.673263,1.55638095 C134.905393,1.49003175 135.154765,1.45701587 135.421698,1.45701587 C135.688951,1.45701587 135.938322,1.49003175 136.170133,1.55638095 C136.771052,1.73796825 137.071512,2.0592381 137.071512,2.52050794 L138.24174,2.52050794 C138.24174,1.99638095 138.073151,1.54939683 137.735333,1.17892063 C137.433277,0.84368254 137.02234,0.598920635 136.502203,0.445269841 C136.15768,0.344 135.797512,0.29352381 135.421698,0.29352381 C135.045565,0.29352381 134.685396,0.344 134.341512,0.445269841 C133.821375,0.598920635 133.408203,0.84368254 133.102635,1.17892063 C132.768649,1.54939683 132.601975,1.99638095 132.601975,2.52050794 C132.601975,3.24368254 132.881361,3.7871746 133.439814,4.15034921 C133.7738,4.36685714 134.388768,4.58336508 135.2844,4.80050794 C135.878614,4.94685714 136.287954,5.07796825 136.51274,5.19320635 C136.885361,5.38177778 137.071512,5.63669841 137.071512,5.95860317 C137.071512,6.4192381 136.771052,6.7392381 136.170133,6.91733333 C135.938322,6.9871746 135.688951,7.02209524 135.421698,7.02209524 C135.154765,7.02209524 134.905393,6.9871746 134.673263,6.91733333 C134.072344,6.7392381 133.772203,6.4192381 133.772203,5.95860317 L132.601975,5.95860317 C132.601975,6.47892063 132.768649,6.92431746 133.102635,7.29447619 C133.408203,7.63003175 133.821375,7.87638095 134.341512,8.03352381 C134.685396,8.13479365 135.045565,8.1855873 135.421698,8.1855873 C135.797512,8.1855873 136.15768,8.13479365 136.502203,8.03352381 C137.02234,7.87638095 137.433277,7.63003175 137.735333,7.29447619 C138.073151,6.92431746 138.24174,6.47892063 138.24174,5.95860317 C138.24174,5.23161905 137.962354,4.68844444 137.403582,4.32844444 C137.066403,4.10844444 136.451115,3.89003175 135.558677,3.67352381 C134.96127,3.53034921 134.551929,3.40114286 134.330656,3.2855873 C133.958354,3.09352381 133.772203,2.83860317 133.772203,2.52050794 C133.772203,2.0592381 134.072344,1.73796825 134.673263,1.55638095" id="Fill-33"></path>
                </g>
                <g id="Copy_Tune" transform="translate(43.772054, 3.533175)" fill="#FFFFFF">
                    <polygon id="Fill-34" points="12.0742632 19.9328254 15.1369719 19.9328254 15.1369719 2.32171429 27.2118737 2.32171429 27.2118737 0.000126984127 0 0.000126984127 0 2.32171429 12.0742632 2.32171429"></polygon>
                    <path d="M64.8651193,14.8004127 L64.8651193,9.52380952e-05 L61.8024105,9.52380952e-05 L61.8024105,15.0073968 C61.8024105,15.9546984 61.5741123,16.533746 61.0137439,17.006127 C60.5565088,17.3912063 59.8735298,17.6121587 59.1394632,17.6121587 L43.3782632,17.6121587 C42.6435579,17.6121587 41.9602596,17.3912063 41.5039825,17.0058095 C40.9439333,16.5334286 40.7156351,15.954381 40.7156351,15.0073968 L40.7156351,9.52380952e-05 L37.6535649,9.52380952e-05 L37.6535649,14.8004127 C37.6535649,16.3683492 38.2841789,17.8362857 39.3404175,18.7273968 C40.5211825,19.7235873 41.9053404,19.9327937 42.8584456,19.9327937 L59.6602386,19.9327937 C60.6127053,19.9327937 61.9962246,19.7235873 63.178586,18.7270794 C64.2345053,17.8369206 64.8651193,16.3689841 64.8651193,14.8004127" id="Fill-35"></path>
                    <polygon id="Fill-36" points="102.067228 9.52380952e-05 99.0045196 9.52380952e-05 99.0045196 15.9715238 78.222674 9.52380952e-05 75.3068425 9.52380952e-05 75.3068425 19.9327937 78.3698705 19.9327937 78.3698705 3.96168254 99.1507582 19.9334286 102.067228 19.9334286"></polygon>
                    <polygon id="Fill-37" points="138.241548 2.32063492 138.241548 0 112.508984 0 112.508984 19.9326984 138.241548 19.9326984 138.241548 17.612381 115.551896 17.612381 115.551896 11.0930159 136.862499 11.0930159 136.862499 8.77142857 115.551896 8.77142857 115.551896 2.32063492"></polygon>
                </g>
            </g>
        </g>
    </g>
</svg>