<?xml version="1.0" encoding="UTF-8"?><svg id="Layer_2" xmlns="http://www.w3.org/2000/svg" viewBox="0 0 643.794 173.1886"><g id="Components"><g id="a7281d50-9af6-4d18-aa31-ea550e4f3a59_4"><path d="M228.4482,71.0759h28.9355l20.5273,72.7021,20.9785-72.7021h27.6699l-35.5371,98.5645h-27.2188l-35.3555-98.5645ZM352.0576,71.0759v98.5645h-26.1328v-98.5645h26.1328ZM453.0127,36.5329v133.1074h-25.0469v-13.6543c-3.6777,5.8477-7.8672,10.0977-12.5703,12.75-4.7012,2.6523-10.5488,3.9785-17.543,3.9785-11.5137,0-21.2051-4.6562-29.0723-13.9707-7.8652-9.3135-11.7988-21.2646-11.7988-35.8545,0-16.8193,3.8711-30.0508,11.6191-39.6963,7.7461-9.6455,18.0996-14.4687,31.0605-14.4687,5.9688,0,11.2734,1.3115,15.916,3.9336,4.6406,2.6221,8.4102,6.2549,11.3027,10.8965v-47.0215h26.1328ZM383.5654,120.9909c0,9.1035,1.8086,16.3672,5.4258,21.793,3.5566,5.4863,8.9824,8.2285,16.2773,8.2285s12.8398-2.7129,16.6387-8.1387c3.7969-5.4248,5.6973-12.4473,5.6973-21.0693,0-12.0557-3.0449-20.6768-9.1348-25.8613-3.7383-3.1338-8.0781-4.7021-13.0215-4.7021-7.5352,0-13.0664,2.8477-16.5918,8.5449-3.5273,5.6973-5.291,12.7656-5.291,21.2051ZM549.6904,140.7038c-.6641,5.8477-3.707,11.7861-9.1328,17.8145-8.4395,9.585-20.2559,14.377-35.4473,14.377-12.5391,0-23.6016-4.0381-33.1855-12.1162-9.5859-8.0781-14.3789-21.2197-14.3789-39.4268,0-17.0596,4.3262-30.1416,12.9766-39.2451,8.6504-9.1016,19.8789-13.6543,33.6836-13.6543,8.1973,0,15.584,1.5371,22.1543,4.6123,6.5703,3.0742,11.9961,7.9277,16.2773,14.5586,3.8574,5.8477,6.3594,12.6299,7.5059,20.3457.6621,4.5215.9336,11.0322.8125,19.5322h-67.457c.3613,9.8877,3.4648,16.8193,9.3145,20.7979,3.5547,2.4727,7.8359,3.708,12.8398,3.708,5.3047,0,9.6152-1.5068,12.9316-4.5215,1.8086-1.6279,3.4043-3.8887,4.791-6.7822h26.3145ZM524.1904,110.5017c-.4219-6.8115-2.4863-11.9814-6.1934-15.5088-3.707-3.5264-8.3047-5.29-13.791-5.29-5.9668,0-10.5957,1.8701-13.8809,5.6064-3.2852,3.7393-5.3496,8.8027-6.1934,15.1924h40.0586ZM642.501,140.7038c-.6641,5.8477-3.707,11.7861-9.1328,17.8145-8.4414,9.585-20.2559,14.377-35.4473,14.377-12.541,0-23.6016-4.0381-33.1875-12.1162-9.584-8.0781-14.377-21.2197-14.377-39.4268,0-17.0596,4.3242-30.1416,12.9766-39.2451,8.6484-9.1016,19.877-13.6543,33.6836-13.6543,8.1973,0,15.582,1.5371,22.1543,4.6123,6.5703,3.0742,11.9961,7.9277,16.2773,14.5586,3.8555,5.8477,6.3594,12.6299,7.5039,20.3457.6641,4.5215.9336,11.0322.8145,19.5322h-67.459c.3633,9.8877,3.4668,16.8193,9.3145,20.7979,3.5566,2.4727,7.8359,3.708,12.8418,3.708,5.3027,0,9.6133-1.5068,12.9297-4.5215,1.8086-1.6279,3.4062-3.8887,4.793-6.7822h26.3145ZM617.001,110.5017c-.4238-6.8115-2.4883-11.9814-6.1953-15.5088-3.707-3.5264-8.3047-5.29-13.7891-5.29-5.9688,0-10.5957,1.8701-13.8809,5.6064-3.2871,3.7393-5.3516,8.8027-6.1953,15.1924h40.0605Z"/><path d="M54.4375,172.5558c-8.1387,0-14.6807-1.627-19.623-4.8828-2.9541-1.9287-6.1484-5.3037-9.585-10.1279v12.3887H0V36.8258h25.6816v47.3833c3.2549-4.5801,6.8408-8.0771,10.7607-10.4893,4.6416-3.0137,10.5488-4.5215,17.7236-4.5215,12.9609,0,23.1035,4.6729,30.4287,14.0166,7.3242,9.3447,10.9863,21.4014,10.9863,36.1699,0,15.3135-3.6172,28.0029-10.8506,38.0703-7.2344,10.0684-17.333,15.1006-30.293,15.1006ZM68.5439,122.0978c0-6.9922-.9043-12.7793-2.7129-17.3613-3.4365-8.6816-9.7666-13.0215-18.9893-13.0215-9.3457,0-15.7656,4.25-19.2617,12.75-1.8086,4.5215-2.7119,10.3691-2.7119,17.543,0,8.4404,1.8672,15.4326,5.6064,20.9785,3.7363,5.5469,9.4336,8.3193,17.0898,8.3193,6.6309,0,11.7852-2.6816,15.4629-8.0479,3.6768-5.3652,5.5166-12.418,5.5166-21.1602ZM236.0127,140.9972c-.6641,5.8477-3.707,11.7861-9.1328,17.8145-8.4404,9.585-20.2559,14.377-35.4473,14.377-12.54,0-23.6016-4.0381-33.1865-12.1162s-14.3779-21.2197-14.3779-39.4268c0-17.0596,4.3252-30.1416,12.9766-39.2451,8.6494-9.1016,19.8779-13.6543,33.6836-13.6543,8.1973,0,15.583,1.5371,22.1543,4.6123,6.5703,3.0742,11.9961,7.9277,16.2773,14.5586,3.8564,5.8477,6.3594,12.6299,7.5049,20.3457.6631,4.5215.9336,11.0322.8135,19.5322h-67.458c.3623,9.8877,3.4658,16.8193,9.3145,20.7979,3.5557,2.4727,7.8359,3.708,12.8408,3.708,5.3037,0,9.6143-1.5068,12.9307-4.5215,1.8086-1.6279,3.4053-3.8887,4.792-6.7822h26.3145ZM210.5127,110.7951c-.4229-6.8115-2.4873-11.9814-6.1943-15.5088-3.707-3.5264-8.3047-5.29-13.79-5.29-5.9678,0-10.5957,1.8701-13.8809,5.6064-3.2861,3.7393-5.3506,8.8027-6.1943,15.1924h40.0596ZM134.3,27.3704c0-14.2066-11.5167-25.7233-25.7233-25.7233s-25.7233,11.5167-25.7233,25.7233,11.5167,25.7233,25.7233,25.7233,25.7233-11.5167,25.7233-25.7233ZM127.4004,107.3054c0-15.4922,10.8193-26.3115,26.3115-26.3115v-27c-30.3926,0-53.3115,22.9189-53.3115,53.3115v62.6279h27v-62.6279ZM197.2245,6.2937h-43.7245v42h43.7245V6.2937ZM196.0735,26.6923l35.4265,26.6923V0l-35.4265,26.6923Z"/></g></g></svg>
