<?xml version="1.0" encoding="UTF-8"?><svg id="Labels" xmlns="http://www.w3.org/2000/svg" viewBox="0 0 276.16 65.67"><defs><style>.cls-1{fill:#000000;}</style></defs><g><path class="cls-1" d="M93.52,48.46V17.21h3.3v28.13h13.37v3.13h-16.67Z"/><path class="cls-1" d="M133.13,17.21h3.52l-8.12,20.1v11.16h-3.3v-11.16l-8.12-20.1h3.52l6.25,15.89,6.25-15.89Z"/><path class="cls-1" d="M163.87,17.21h3.17v31.25h-4.12l-10.37-25.78v25.78h-3.17V17.21h4.34l10.16,25.39V17.21Z"/><path class="cls-1" d="M198.1,17.21v3.13h-7.51v28.13h-3.3V20.33h-7.55v-3.13h18.36Z"/><path class="cls-1" d="M210.81,48.46V17.21h3.3v31.25h-3.3Z"/><path class="cls-1" d="M227.74,40.34v-15.15c0-4.99,3.69-8.42,8.81-8.42s8.64,3.17,8.77,8.51h-3.3c-.09-3.26-2.34-5.38-5.47-5.38-3.3,0-5.51,2.17-5.51,5.6v14.5c0,3.65,2.21,5.77,5.38,5.77,3.43,0,5.51-2.21,5.51-5.51h3.3c0,5.25-3.56,8.64-8.77,8.64s-8.72-3.34-8.72-8.55Z"/><path class="cls-1" d="M257.8,39.69h3.26c-.04,3.91,2.26,6.08,5.82,6.08s5.9-2.3,5.9-5.43c0-2.65-1.52-4.04-4.64-5.56l-3.73-1.87c-3.6-1.78-6.12-4.25-6.12-8.12,0-4.6,3.6-8.03,8.68-8.03,5.38,0,8.77,3.26,8.77,8.51h-3.21c-.04-3.39-2.17-5.38-5.56-5.38s-5.3,2.21-5.3,4.73,1.39,3.82,4.3,5.25l4.08,2c3.99,2,6.12,4.47,6.12,8.25,0,5.08-3.86,8.77-9.29,8.77s-9.12-3.56-9.07-9.2Z"/></g><path class="cls-1" d="M15.77,49.9c2.9,2.9,2.9,7.61,0,10.5-2.9,2.9-7.61,2.9-10.5,0-2.9-2.9-2.9-7.61,0-10.5,2.9-2.9,7.61-2.9,10.5,0Zm34.13,0c-2.9,2.9-2.9,7.61,0,10.5s7.61,2.9,10.5,0c2.9-2.9,2.9-7.61,0-10.5-2.9-2.9-7.61-2.9-10.5,0ZM60.41,15.77c2.9-2.9,2.9-7.61,0-10.5s-7.61-2.9-10.5,0-2.9,7.61,0,10.5,7.61,2.9,10.5,0ZM5.27,5.27c-2.9,2.9-2.9,7.61,0,10.5s7.61,2.9,10.5,0c2.9-2.9,2.9-7.61,0-10.5-2.9-2.9-7.61-2.9-10.5,0ZM56.13,27.89c-4.44-1-8.53-3.22-11.82-6.52-2.67-2.67-4.64-5.86-5.82-9.35-.85,3.76-2.32,7.34-4.35,10.62,1.17,1.73,2.52,3.36,4.02,4.87h0c.07,.07,.13,.13,.2,.19,.16,.15,.31,.31,.47,.46,.11,.1,.22,.2,.33,.31,.13,.12,.26,.24,.4,.36,.11,.1,.22,.2,.34,.3,.17,.15,.35,.3,.52,.44,.16,.13,.32,.26,.48,.39,.14,.11,.27,.22,.41,.33,.13,.1,.25,.2,.38,.29,.13,.1,.27,.2,.4,.3,.12,.09,.25,.18,.37,.27,.23,.17,.47,.33,.71,.49,.11,.07,.21,.14,.32,.21,.17,.11,.34,.22,.51,.33,.1,.07,.21,.13,.31,.19,.22,.14,.44,.27,.67,.4,4.91,2.84,10.49,4.38,16.31,4.41,.13,0,.26,0,.39-.02,.02,0,.04,0,.06,0,.02,0,.03,0,.05,0,.11-.01,.21-.03,.32-.05,.01,0,.03,0,.04,0,.03,0,.06-.01,.08-.02,.11-.02,.22-.05,.33-.08h.03c.12-.04,.24-.09,.35-.13,.02,0,.05-.02,.07-.03,.02,0,.04-.02,.06-.03,.09-.04,.18-.08,.26-.12,.04-.02,.09-.05,.13-.07,.07-.04,.14-.08,.21-.13,.02-.02,.05-.03,.07-.05h.01c.07-.06,.14-.11,.21-.16,.11-.08,.21-.17,.31-.26,.02-.02,.04-.03,.05-.05,.12-.12,.24-.24,.34-.37,.09-.11,.17-.22,.25-.33h0s.02-.04,.04-.06c.04-.07,.09-.14,.13-.21,.02-.03,.04-.07,.06-.1,.01-.03,.03-.05,.04-.08,.04-.07,.07-.14,.1-.21,.02-.04,.04-.08,.05-.12,.04-.11,.08-.21,.12-.32,0-.02,.01-.04,.02-.06,.03-.11,.06-.22,.09-.33,0-.02,.01-.04,.01-.06,.03-.13,.05-.25,.06-.38v-.06c.02-.14,.03-.27,.03-.41,0-.14,0-.29-.02-.43v-.04c-.02-.13-.04-.26-.06-.39,0-.05-.02-.09-.03-.14-.01-.06-.03-.13-.05-.19-.01-.05-.02-.09-.04-.14,0-.02-.01-.03-.02-.05-.03-.09-.06-.17-.09-.25-.01-.03-.02-.06-.03-.08-.04-.09-.08-.18-.13-.27-.02-.04-.04-.08-.06-.12-.02-.03-.04-.06-.05-.1-.03-.05-.06-.09-.08-.14-.03-.04-.05-.08-.08-.12-.02-.03-.04-.06-.07-.09-.04-.05-.07-.1-.11-.14-.02-.03-.05-.06-.07-.09-.17-.21-.37-.41-.59-.59,0,0-.02-.01-.03-.02-.02-.02-.05-.04-.07-.05-.08-.06-.16-.12-.24-.18-.12-.08-.24-.15-.36-.22-.02,0-.03-.02-.05-.03-.07-.04-.14-.07-.21-.1-.04-.02-.08-.04-.13-.05-.04-.02-.07-.03-.11-.04-.05-.02-.09-.03-.14-.05-.03-.01-.07-.02-.1-.03-.05-.02-.11-.04-.16-.05-.1-.03-.21-.06-.31-.08h-.03c-.09-.02-.18-.04-.27-.05-.04,0-.09-.01-.13-.02h-.04c-.12-.01-.23-.02-.35-.02-1.78-.01-3.53-.22-5.22-.6Zm-11.83,16.41c2.67-2.67,5.86-4.64,9.34-5.82-3.76-.85-7.34-2.32-10.61-4.35-1.73,1.17-3.36,2.51-4.87,4.02h0c-.12,.12-.23,.24-.34,.36-.09,.1-.19,.19-.28,.29-.12,.13-.24,.26-.36,.39-.11,.11-.21,.23-.31,.35-.11,.12-.21,.24-.32,.36-.18,.2-.35,.41-.52,.61-.08,.1-.16,.19-.24,.29-.15,.18-.29,.36-.43,.55-.07,.09-.14,.18-.21,.27-.15,.2-.3,.4-.45,.61-.04,.06-.08,.12-.13,.17-.2,.28-.39,.56-.58,.84l-.02,.03c-.19,.28-.37,.57-.55,.86l-.04,.07c-.18,.3-.36,.6-.54,.9h0c-2.8,4.88-4.31,10.42-4.35,16.19,0,.02,0,.04,0,.06h0c0,.08,0,.14,0,.21,0,.02,0,.05,0,.07,0,.11,.02,.22,.04,.33,0,.07,.02,.14,.04,.22,.01,.07,.03,.14,.05,.21,.02,.08,.04,.15,.07,.23,0,.04,.02,.08,.04,.12,.02,.06,.04,.11,.06,.17,.02,.06,.04,.11,.07,.16,.03,.06,.06,.13,.09,.19,.02,.05,.05,.09,.07,.14,.04,.07,.07,.14,.12,.2,.04,.07,.08,.13,.13,.2l.05,.07s.03,.04,.04,.06l.05,.06,.05,.06,.1,.12,.02,.02,.13,.14s.04,.05,.07,.07c.02,.02,.05,.05,.07,.07,.04,.03,.07,.07,.11,.11,.04,.04,.09,.07,.13,.11,.05,.04,.1,.08,.15,.12,.11,.08,.22,.16,.34,.23,.06,.03,.12,.07,.18,.1,.18,.1,.37,.19,.57,.26,.07,.02,.13,.05,.2,.07,.03,0,.06,.02,.09,.02h.03s.06,.02,.09,.03c.07,.02,.14,.03,.21,.05,.07,.02,.14,.03,.21,.04,.07,.01,.14,.02,.22,.03,.07,0,.13,.01,.2,.02,.03,0,.06,0,.09,0,.07,0,.13,0,.2,0,.06,0,.12,0,.18,0,.15,0,.3-.02,.44-.04,.07-.01,.14-.02,.22-.04s.14-.03,.21-.05c.07-.02,.13-.03,.2-.05h0s.02,0,.02,0h0c.06-.02,.12-.04,.18-.06,.07-.02,.15-.06,.22-.09,.04-.02,.08-.04,.13-.06l.04-.02c.07-.03,.13-.06,.19-.1,.03-.02,.06-.03,.09-.05,.06-.03,.11-.06,.16-.1,.04-.02,.08-.05,.11-.07,.03-.02,.06-.04,.09-.06,.06-.04,.12-.09,.18-.14,.02-.01,.03-.02,.05-.04l.02-.02c.07-.06,.13-.12,.2-.18,.07-.06,.13-.13,.19-.19,.05-.06,.11-.11,.16-.18l.03-.03c.08-.09,.15-.19,.22-.29,.01-.02,.03-.04,.04-.06,.07-.11,.14-.21,.2-.32v-.02c.08-.12,.13-.24,.19-.36v-.02c.06-.12,.11-.24,.15-.37v-.04c.14-.4,.21-.83,.21-1.27,.03-4.43,1.23-8.67,3.46-12.38,1.01-1.68,2.24-3.25,3.66-4.68Zm-21.66-12.75c1.73-1.17,3.37-2.52,4.88-4.03h0c.38-.38,.75-.77,1.1-1.16l.05-.06c.72-.79,1.4-1.62,2.03-2.47h0c.47-.64,.92-1.29,1.35-1.96l.02-.04c.13-.21,.27-.42,.39-.64,.02-.03,.04-.07,.06-.1,3-5.01,4.62-10.74,4.65-16.72,0-.28-.03-.55-.07-.82,0-.04-.02-.09-.03-.13-.02-.1-.05-.21-.08-.31,0-.03-.02-.06-.03-.1-.03-.11-.07-.21-.12-.32-.01-.02-.02-.05-.03-.07-.05-.11-.1-.22-.16-.33v-.03s-.03-.03-.04-.05c-.09-.16-.19-.31-.29-.45-.03-.04-.06-.08-.1-.12,.03,.03,.05,.07,.08,.1h0s-.06-.08-.09-.12c-.03-.04-.06-.08-.09-.11-.04-.05-.08-.09-.13-.14-.06-.06-.12-.13-.18-.19-.26-.24-.54-.46-.85-.63-.04-.02-.09-.05-.13-.07-.31-.16-.64-.29-.99-.37-.08-.02-.16-.04-.24-.05-.24-.04-.48-.07-.73-.07h-.02c-.13,0-.26,0-.39,.02-.03,0-.07,0-.1,0-.09,0-.18,.02-.26,.04-.06,0-.12,.02-.17,.03-.02,0-.03,0-.04,0h-.01s-.04,.01-.06,.02c-.06,.02-.13,.03-.19,.05-.02,0-.04,.01-.06,.02-.07,.02-.14,.04-.2,.07-.04,.01-.08,.03-.11,.04l-.04,.02c-.07,.03-.14,.06-.21,.09h0s-.09,.04-.14,.06c-.03,.02-.06,.03-.1,.05-.02,.01-.05,.03-.07,.04-.06,.04-.13,.07-.19,.11-.03,.02-.07,.04-.1,.07h0c-.11,.08-.21,.15-.31,.23-.23,.19-.44,.4-.63,.63h0c-.08,.1-.15,.21-.23,.31h0s-.05,.08-.07,.11c-.02,.04-.05,.08-.07,.12-.03,.05-.05,.09-.08,.14-.02,.04-.04,.08-.06,.12-.01,.02-.02,.05-.03,.07l-.02,.05c-.03,.07-.06,.14-.09,.21,0,.02-.01,.03-.02,.05l-.02,.04v.04c-.04,.07-.07,.15-.09,.22,0,.02-.02,.05-.02,.07,0,.03-.01,.06-.02,.09-.01,.05-.03,.1-.04,.15h0s0,.04,0,.06c-.02,.08-.03,.16-.04,.24v.04c-.03,.13-.04,.26-.04,.4v.05c0,.05,0,.1,0,.16-.04,6.44-2.56,12.49-7.12,17.05-2.67,2.67-5.87,4.64-9.35,5.82,3.76,.85,7.34,2.32,10.62,4.35Zm-18.32,5.64c6.44,.04,12.49,2.57,17.04,7.12,2.67,2.67,4.64,5.86,5.82,9.33,.85-3.76,2.32-7.34,4.35-10.61-1.17-1.73-2.51-3.36-4.02-4.87h0c-6.18-6.18-14.4-9.61-23.14-9.66-.59,0-1.16,.11-1.67,.32-.03,.01-.06,.03-.1,.04-.09,.04-.17,.08-.25,.12-.05,.03-.1,.05-.15,.08-.07,.04-.15,.08-.22,.13-.02,.01-.04,.03-.06,.04l-.03,.02c-.06,.04-.12,.09-.18,.14-.12,.09-.24,.19-.35,.3h-.01c-.12,.13-.24,.25-.35,.39-.04,.04-.07,.09-.11,.14l-.03,.04c-.04,.05-.08,.11-.11,.16-.12,.18-.22,.36-.32,.55-.03,.06-.06,.13-.09,.19-.03,.07-.05,.13-.08,.2-.07,.2-.13,.41-.17,.62-.06,.27-.09,.55-.09,.83,0,.24,.02,.48,.06,.71,0,.05,.02,.11,.03,.16,.01,.05,.02,.11,.03,.16,.02,.1,.05,.21,.08,.31,.05,.17,.11,.33,.18,.48,.07,.16,.15,.31,.24,.46,0,0,0,0,0,.01,.07,.12,.15,.23,.23,.34,.12,.17,.26,.32,.4,.47,.04,.04,.09,.09,.13,.12h0c.13,.13,.28,.25,.43,.35,.05,.03,.1,.07,.15,.1,.15,.1,.32,.19,.48,.27,.06,.03,.13,.06,.19,.09,.07,.03,.13,.05,.2,.08,.2,.07,.41,.13,.62,.17,.07,.01,.14,.03,.22,.04,.07,0,.15,.02,.22,.02,.07,0,.15,.01,.22,.02,.06,0,.11,0,.17,0Z"/></svg>
